# xmcd
#
# Track frame offsets:
#	182
#	21965
#	44250
#	66392
#	87827
#	110272
#
# Disc length: 1688 seconds
#
# Revision: 0
# Processed by: cddbd v1.5.2PL0 Copyright (c) Steve Scherf et al.
# Submitted via: EasyCDDAExtractor 16.1.0.1
#
DISCID=48069606
DTITLE=Battery Cremil - Moin Trouvé
DYEAR=1992
DGENRE=zouk
TTITLE0=Moin Trouvé
TTITLE1=L'anmou Nou
TTITLE2=Trimé
TTITLE3=Lau
TTITLE4=Asse
TTITLE5=Malgré Tout
EXTD=
EXTT0=
EXTT1=
EXTT2=
EXTT3=
EXTT4=
EXTT5=
PLAYORDER=
